<?xml version="1.0" encoding="utf-8"?><svg version="1.1" id="Layer_1" xmlns="http://www.w3.org/2000/svg" xmlns:xlink="http://www.w3.org/1999/xlink" x="0px" y="0px" viewBox="0 0 119.31 122.88" style="enable-background:new 0 0 119.31 122.88" xml:space="preserve"><g><path d="M23.15,69.72c1.95,0.25,3.33,2.03,3.09,3.98c-0.25,1.95-2.03,3.33-3.98,3.09c-2.59-0.33-4.95-0.94-7.08-1.82 c-2.18-0.9-4.13-2.08-5.86-3.53H9.3c-1.63-1.36-3.06-2.91-4.27-4.59C1.79,62.38,0.04,56.93,0,51.49C-0.04,46,1.67,40.53,5.36,36.11 c1.2-1.43,2.6-2.75,4.21-3.92c1.88-1.36,4.02-2.51,6.44-3.45c1.67-0.65,3.45-1.19,5.34-1.63c2.13-8.48,6.69-15.02,12.54-19.56 c5.47-4.25,12.07-6.72,18.86-7.37c6.75-0.65,13.71,0.5,19.95,3.49c6.82,3.27,12.76,8.72,16.62,16.38c1.55-0.24,3.11-0.36,4.65-0.35 c6.52,0.04,12.81,2.38,17.77,7.72c1.04,1.12,2.02,2.38,2.94,3.79c3.11,4.78,4.7,11.16,4.63,17.4c-0.07,6.12-1.72,12.23-5.1,16.72 c-1.67,2.22-3.7,4.13-6.06,5.74c-2.29,1.57-4.91,2.88-7.82,3.94c-1.85,0.67-3.9-0.29-4.57-2.14c-0.67-1.85,0.29-3.9,2.14-4.57 c2.34-0.85,4.42-1.89,6.23-3.13c1.74-1.19,3.21-2.56,4.38-4.12c2.43-3.23,3.62-7.8,3.67-12.5c0.05-4.92-1.14-9.86-3.48-13.46 c-0.67-1.03-1.4-1.97-2.18-2.81c-3.5-3.77-7.96-5.42-12.57-5.45c-3.36-0.02-6.82,0.78-10.11,2.24c-0.73,0.36-1.46,0.75-2.19,1.18 c-2.19,1.28-4.35,2.85-6.54,4.64l-4.69-5.38c1.62-1.5,3.38-2.88,5.25-4.09c1.49-0.97,3.04-1.83,4.64-2.57 c0.64-0.32,1.29-0.62,1.94-0.9c-3.1-5.48-7.56-9.42-12.61-11.85c-5.05-2.42-10.7-3.35-16.2-2.82c-5.47,0.53-10.78,2.51-15.17,5.92 c-5.07,3.94-8.94,9.82-10.42,17.61l-0.46,2.44l-2.43,0.43c-2.38,0.42-4.5,0.99-6.37,1.71c-1.81,0.7-3.42,1.56-4.82,2.58 c-1.13,0.82-2.1,1.73-2.92,2.72c-2.56,3.06-3.74,6.9-3.71,10.78c0.03,3.94,1.31,7.92,3.68,11.2c0.88,1.21,1.91,2.33,3.07,3.3 l-0.01,0.01c1.17,0.97,2.5,1.78,4.01,2.4C19.45,69.02,21.2,69.47,23.15,69.72L23.15,69.72z M60.54,96.41L68.79,67h21.1L82.54,82.4 l12.52,0.24l-30.51,40.24l5.87-26.47H60.54L60.54,96.41z M44.03,61.43c1.44,6.68,5.76,10.02,5.76,13.36c0,3.34-1.44,6.68-5.76,6.68 c-4.32,0-5.76-3.34-5.76-6.68C38.27,71.46,42.59,68.12,44.03,61.43L44.03,61.43z M47.77,88.53c1.66,7.68,6.63,11.53,6.63,15.37 c0,3.84-1.66,7.68-6.63,7.68c-4.97,0-6.63-3.84-6.63-7.68C41.14,100.05,46.11,96.21,47.77,88.53L47.77,88.53z M28.26,80.39 c1.66,7.68,6.63,11.53,6.63,15.37c0,3.84-1.66,7.68-6.63,7.68c-4.97,0-6.63-3.84-6.63-7.68C21.63,91.92,26.6,88.08,28.26,80.39 L28.26,80.39z"/></g></svg>