<svg version="1" xmlns="http://www.w3.org/2000/svg" width="682.667" height="682.667" viewBox="0 0 512.000000 512.000000"><path d="M255.5 88c-43.1 4.9-81.4 23.9-113.6 56.2-20.2 20.3-32.7 42.6-38 67.8-1.8 8.3-2.2 13.8-2.2 26.5 0 24.1 2.6 37.5 15.4 77.5 6.6 20.9 7.2 23.3 7.6 33.5.8 18-3.1 31.6-11.8 41-4.1 4.4-4.1 4.6-1.3 3.4 11.5-4.9 22.2-18.3 26.8-33.9 4.7-15.5 5.5-32.4 3.1-63.5-3.6-47.1-1.4-60.4 14.1-83.7 8.3-12.5 26.6-31.5 38.1-39.7 23.4-16.7 49-24.3 81.3-24.3 22.1 0 44.9 3.8 63.7 10.7 3.7 1.3 7.1 2.1 7.5 1.7.9-1 27.8-51.9 27.8-52.7 0-2-29.4-12-45.3-15.4-5.3-1.1-14-2.8-19.4-3.6-11.9-1.9-42.8-2.7-53.8-1.5z"/><path d="M244.7 161.5c-4.3.7-8.1 1.6-8.4 1.9-.4.3 1.8 9.4 4.7 20.1 5.7 20.9 5.7 20.7 11.5 18.5l2.5-1-.2-20.2c-.2-12.4-.7-20.2-1.3-20.4-.5-.1-4.5.4-8.8 1.1zM262 180.5v20.7l2.3-.6c1.2-.3 3.2-.6 4.3-.6 1.8 0 2.2-.8 2.8-4.8 1.9-14.5 10.3-22.2 30.5-28.3 4.5-1.3 8.1-2.7 8.1-3 0-1.2-16.5-3.1-31.7-3.6l-16.3-.6v20.8zM220.4 168.3c-2.8 1.2-6.1 2.9-7.4 3.8l-2.3 1.5 11.4 16.7c6.4 9.6 12 16.7 12.9 16.7 4.6-.1 4.5-1-1.1-21.4-4-14.5-5.8-19.6-6.9-19.6-.8.1-3.8 1.1-6.6 2.3zM197.8 182.1c-2.9 2.3-5.7 4.5-6.2 5-.7.7 23.3 27.8 25.4 28.7.4.2 2.8-.9 5.3-2.4l4.5-2.8-10.9-16.3c-6-9-11.3-16.3-11.8-16.3s-3.3 1.9-6.3 4.1zM179.1 198.5c-2.8 3.1-5.1 6-5.1 6.3 0 .4 7 5.4 15.5 11.2l15.5 10.4 2.9-2.9 2.9-3-12.5-13.5c-6.9-7.4-12.8-13.6-13.3-13.8-.4-.1-3 2.3-5.9 5.3zM164.1 218c-2.4 3.9-4.2 7.2-4 7.4.2.2 8.2 3.1 17.6 6.6l17.2 6.3 2-2.4c1.1-1.3 2-2.9 2.1-3.5 0-.8-29-21.4-30.2-21.4-.2 0-2.3 3.2-4.7 7zM252.2 216.1C227 220.3 206 238 197 262.7c-4 11.1-5.4 21.4-4.7 34.1.7 11.3 1.9 16.9 7 32.2 3 9 3.2 10.2 3.1 24-.1 8-.9 19.4-1.8 25.4s-1.4 11.1-1.2 11.3c.2.2 16.2-3.7 35.6-8.7l35.3-9 6.6 4.9c23.9 17.5 53.8 35 68.6 40.1 8.6 3 8.3 3.2 6.9-5.8-3.8-24.1-8.9-81.4-7.7-87.3.5-2.9.5-2.9-4.4-2.9-5.9 0-14.9-2.2-20.5-5.1-4.4-2.2-17.8-14.7-17.8-16.5 0-1.6 10.5-6.9 17.4-8.9 8.4-2.4 18.9-1.7 24.7 1.8 4.9 2.8 9.3 7.3 13.3 13.2 2.5 3.9 2.6 4.4 2.6 19.7 0 8.6.3 15.9.8 16.1.4.2 6.9.2 14.4-.1l13.7-.4-4.3-5.7c-8-10.4-12.4-19.4-18.6-37.4-9.3-27.4-17.1-41.5-30-54.6-8.2-8.2-16.4-14-26.4-18.7-16.6-7.6-40.6-11.1-57.4-8.3zM155.6 236.2c-.8 1.8-1.7 4.7-2 6.5-.9 3.9-1.3 3.8 18.7 5.4 16.4 1.2 17.6 1.1 17.7-2.7 0-.9-30-12.5-32.3-12.4-.4 0-1.4 1.5-2.1 3.2zM150.6 259.2c-.8 6.8-.8 26.1 0 28.2.4 1.2 1.6 0 4.3-4.2 2.1-3.1 5.7-7.4 8-9.5 4.7-4.3 13.3-8.7 16.9-8.7 2.2 0 3.6-2.1 4.4-6.6.3-1.7-.9-2-12.7-3.1-7.1-.6-14.6-1.2-16.6-1.2l-3.6-.1-.7 5.2z"/></svg>