<svg xmlns="http://www.w3.org/2000/svg" viewBox="0 0 107.9 124.5"><title>favicon</title><g data-name="Layer 3" style="isolation:isolate"><g fill="#424242"><path d="M25.3 46.4l11.5 8-1.7 2-13-4.7a35.8 35.8 0 0 1 3.3-5.3zm6-6.7a49.5 49.5 0 0 0-4.2 4.4L39 52l2.2-2zm7.2-6l-5 4 9.8 10.6a32.7 32.7 0 0 1 3.6-2zM19.3 59.6l13.2 1.2 1-1.6-12.7-4.5a36.2 36.2 0 0 0-1.5 5zM28.6 37c22.4-22.4 55.2-12.4 63-9l10.6-20.2s-42.2-20.5-76.8 5C-19.5 44.7 9 84.5 9 98.3S2.8 115 2.8 115c-.2.4 13-3 12.6-26.2S8.6 57 28.6 37zm-9.8 25.5a55.4 55.4 0 0 0-.2 13.5s3-8.6 11.7-9.7a22 22 0 0 1 1-2.7zm28.7-33a31.8 31.8 0 0 0-6.5 2.8L49.6 45l2-.7zM108 95a36.8 36.8 0 0 1-7-11c-3-7-7.4-35.4-39.4-36-16.6-.3-29 13.7-27.4 31.4.8 9.4 4 11.8 4 19.2a100.6 100.6 0 0 1-1.6 15c.2-.2 26.7-7 26.7-7s20.5 15.6 31.3 18c-.4 0-4.7-34-3.2-37-3.2.3-10.5.4-16.5-8.3 0 0 14.8-11 22 4.4v11.6zM67 33.6c3.5-3 11.6-4.7 11.6-4.7a76.3 76.3 0 0 0-18.3-1.6v15.3l3-.3s.3-5.8 3.8-8.7zm-9.6-6a49.7 49.7 0 0 0-7 1l4 15 3-.6z"/><path d="M25.3 46.4l11.5 8-1.7 2-13-4.7a35.8 35.8 0 0 1 3.3-5.3zm6-6.7a49.5 49.5 0 0 0-4.2 4.4L39 52l2.2-2zm7.2-6l-5 4 9.8 10.6a32.7 32.7 0 0 1 3.6-2zM19.3 59.6l13.2 1.2 1-1.6-12.7-4.5a36.2 36.2 0 0 0-1.5 5zM28.6 37c22.4-22.4 55.2-12.4 63-9l10.6-20.2s-42.2-20.5-76.8 5C-19.5 44.7 9 84.5 9 98.3S2.8 115 2.8 115c-.2.4 13-3 12.6-26.2S8.6 57 28.6 37zm-9.8 25.5a55.4 55.4 0 0 0-.2 13.5s3-8.6 11.7-9.7a22 22 0 0 1 1-2.7zm28.7-33a31.8 31.8 0 0 0-6.5 2.8L49.6 45l2-.7zM108 95a36.8 36.8 0 0 1-7-11c-3-7-7.4-35.4-39.4-36-16.6-.3-29 13.7-27.4 31.4.8 9.4 4 11.8 4 19.2a100.6 100.6 0 0 1-1.6 15c.2-.2 26.7-7 26.7-7s20.5 15.6 31.3 18c-.4 0-4.7-34-3.2-37-3.2.3-10.5.4-16.5-8.3 0 0 14.8-11 22 4.4v11.6zM67 33.6c3.5-3 11.6-4.7 11.6-4.7a76.3 76.3 0 0 0-18.3-1.6v15.3l3-.3s.3-5.8 3.8-8.7zm-9.6-6a49.7 49.7 0 0 0-7 1l4 15 3-.6z"/></g><g data-name="Shape" fill="#fff" style="mix-blend-mode:multiply"><path d="M25.3 46.4l11.5 8-1.7 2-13-4.7a35.8 35.8 0 0 1 3.3-5.3zm6-6.7a49.5 49.5 0 0 0-4.2 4.4L39 52l2.2-2zm7.2-6l-5 4 9.8 10.6a32.7 32.7 0 0 1 3.6-2zM19.3 59.6l13.2 1.2 1-1.6-12.7-4.5a36.2 36.2 0 0 0-1.5 5zM28.6 37c22.4-22.4 55.2-12.4 63-9l10.6-20.2s-42.2-20.5-76.8 5C-19.5 44.7 9 84.5 9 98.3S2.8 115 2.8 115c-.2.4 13-3 12.6-26.2S8.6 57 28.6 37zm-9.8 25.5a55.4 55.4 0 0 0-.2 13.5s3-8.6 11.7-9.7a22 22 0 0 1 1-2.7zm28.7-33a31.8 31.8 0 0 0-6.5 2.8L49.6 45l2-.7zM108 95a36.8 36.8 0 0 1-7-11c-3-7-7.4-35.4-39.4-36-16.6-.3-29 13.7-27.4 31.4.8 9.4 4 11.8 4 19.2a100.6 100.6 0 0 1-1.6 15c.2-.2 26.7-7 26.7-7s20.5 15.6 31.3 18c-.4 0-4.7-34-3.2-37-3.2.3-10.5.4-16.5-8.3 0 0 14.8-11 22 4.4v11.6zM67 33.6c3.5-3 11.6-4.7 11.6-4.7a76.3 76.3 0 0 0-18.3-1.6v15.3l3-.3s.3-5.8 3.8-8.7zm-9.6-6a49.7 49.7 0 0 0-7 1l4 15 3-.6z"/><path d="M25.3 46.4l11.5 8-1.7 2-13-4.7a35.8 35.8 0 0 1 3.3-5.3zm6-6.7a49.5 49.5 0 0 0-4.2 4.4L39 52l2.2-2zm7.2-6l-5 4 9.8 10.6a32.7 32.7 0 0 1 3.6-2zM19.3 59.6l13.2 1.2 1-1.6-12.7-4.5a36.2 36.2 0 0 0-1.5 5zM28.6 37c22.4-22.4 55.2-12.4 63-9l10.6-20.2s-42.2-20.5-76.8 5C-19.5 44.7 9 84.5 9 98.3S2.8 115 2.8 115c-.2.4 13-3 12.6-26.2S8.6 57 28.6 37zm-9.8 25.5a55.4 55.4 0 0 0-.2 13.5s3-8.6 11.7-9.7a22 22 0 0 1 1-2.7zm28.7-33a31.8 31.8 0 0 0-6.5 2.8L49.6 45l2-.7zM108 95a36.8 36.8 0 0 1-7-11c-3-7-7.4-35.4-39.4-36-16.6-.3-29 13.7-27.4 31.4.8 9.4 4 11.8 4 19.2a100.6 100.6 0 0 1-1.6 15c.2-.2 26.7-7 26.7-7s20.5 15.6 31.3 18c-.4 0-4.7-34-3.2-37-3.2.3-10.5.4-16.5-8.3 0 0 14.8-11 22 4.4v11.6zM67 33.6c3.5-3 11.6-4.7 11.6-4.7a76.3 76.3 0 0 0-18.3-1.6v15.3l3-.3s.3-5.8 3.8-8.7zm-9.6-6a49.7 49.7 0 0 0-7 1l4 15 3-.6z"/><path d="M25.3 46.4l11.5 8-1.7 2-13-4.7a35.8 35.8 0 0 1 3.3-5.3zm6-6.7a49.5 49.5 0 0 0-4.2 4.4L39 52l2.2-2zm7.2-6l-5 4 9.8 10.6a32.7 32.7 0 0 1 3.6-2zM19.3 59.6l13.2 1.2 1-1.6-12.7-4.5a36.2 36.2 0 0 0-1.5 5zM28.6 37c22.4-22.4 55.2-12.4 63-9l10.6-20.2s-42.2-20.5-76.8 5C-19.5 44.7 9 84.5 9 98.3S2.8 115 2.8 115c-.2.4 13-3 12.6-26.2S8.6 57 28.6 37zm-9.8 25.5a55.4 55.4 0 0 0-.2 13.5s3-8.6 11.7-9.7a22 22 0 0 1 1-2.7zm28.7-33a31.8 31.8 0 0 0-6.5 2.8L49.6 45l2-.7zM108 95a36.8 36.8 0 0 1-7-11c-3-7-7.4-35.4-39.4-36-16.6-.3-29 13.7-27.4 31.4.8 9.4 4 11.8 4 19.2a100.6 100.6 0 0 1-1.6 15c.2-.2 26.7-7 26.7-7s20.5 15.6 31.3 18c-.4 0-4.7-34-3.2-37-3.2.3-10.5.4-16.5-8.3 0 0 14.8-11 22 4.4v11.6zM67 33.6c3.5-3 11.6-4.7 11.6-4.7a76.3 76.3 0 0 0-18.3-1.6v15.3l3-.3s.3-5.8 3.8-8.7zm-9.6-6a49.7 49.7 0 0 0-7 1l4 15 3-.6z"/></g><g data-name="Shape" fill="#fff" style="mix-blend-mode:multiply"><path d="M25.3 46.4l11.5 8-1.7 2-13-4.7a35.8 35.8 0 0 1 3.3-5.3zm6-6.7a49.5 49.5 0 0 0-4.2 4.4L39 52l2.2-2zm7.2-6l-5 4 9.8 10.6a32.7 32.7 0 0 1 3.6-2zM19.3 59.6l13.2 1.2 1-1.6-12.7-4.5a36.2 36.2 0 0 0-1.5 5zM28.6 37c22.4-22.4 55.2-12.4 63-9l10.6-20.2s-42.2-20.5-76.8 5C-19.5 44.7 9 84.5 9 98.3S2.8 115 2.8 115c-.2.4 13-3 12.6-26.2S8.6 57 28.6 37zm-9.8 25.5a55.4 55.4 0 0 0-.2 13.5s3-8.6 11.7-9.7a22 22 0 0 1 1-2.7zm28.7-33a31.8 31.8 0 0 0-6.5 2.8L49.6 45l2-.7zM108 95a36.8 36.8 0 0 1-7-11c-3-7-7.4-35.4-39.4-36-16.6-.3-29 13.7-27.4 31.4.8 9.4 4 11.8 4 19.2a100.6 100.6 0 0 1-1.6 15c.2-.2 26.7-7 26.7-7s20.5 15.6 31.3 18c-.4 0-4.7-34-3.2-37-3.2.3-10.5.4-16.5-8.3 0 0 14.8-11 22 4.4v11.6zM67 33.6c3.5-3 11.6-4.7 11.6-4.7a76.3 76.3 0 0 0-18.3-1.6v15.3l3-.3s.3-5.8 3.8-8.7zm-9.6-6a49.7 49.7 0 0 0-7 1l4 15 3-.6z"/><path d="M25.3 46.4l11.5 8-1.7 2-13-4.7a35.8 35.8 0 0 1 3.3-5.3zm6-6.7a49.5 49.5 0 0 0-4.2 4.4L39 52l2.2-2zm7.2-6l-5 4 9.8 10.6a32.7 32.7 0 0 1 3.6-2zM19.3 59.6l13.2 1.2 1-1.6-12.7-4.5a36.2 36.2 0 0 0-1.5 5zM28.6 37c22.4-22.4 55.2-12.4 63-9l10.6-20.2s-42.2-20.5-76.8 5C-19.5 44.7 9 84.5 9 98.3S2.8 115 2.8 115c-.2.4 13-3 12.6-26.2S8.6 57 28.6 37zm-9.8 25.5a55.4 55.4 0 0 0-.2 13.5s3-8.6 11.7-9.7a22 22 0 0 1 1-2.7zm28.7-33a31.8 31.8 0 0 0-6.5 2.8L49.6 45l2-.7zM108 95a36.8 36.8 0 0 1-7-11c-3-7-7.4-35.4-39.4-36-16.6-.3-29 13.7-27.4 31.4.8 9.4 4 11.8 4 19.2a100.6 100.6 0 0 1-1.6 15c.2-.2 26.7-7 26.7-7s20.5 15.6 31.3 18c-.4 0-4.7-34-3.2-37-3.2.3-10.5.4-16.5-8.3 0 0 14.8-11 22 4.4v11.6zM67 33.6c3.5-3 11.6-4.7 11.6-4.7a76.3 76.3 0 0 0-18.3-1.6v15.3l3-.3s.3-5.8 3.8-8.7zm-9.6-6a49.7 49.7 0 0 0-7 1l4 15 3-.6z"/><path d="M25.3 46.4l11.5 8-1.7 2-13-4.7a35.8 35.8 0 0 1 3.3-5.3zm6-6.7a49.5 49.5 0 0 0-4.2 4.4L39 52l2.2-2zm7.2-6l-5 4 9.8 10.6a32.7 32.7 0 0 1 3.6-2zM19.3 59.6l13.2 1.2 1-1.6-12.7-4.5a36.2 36.2 0 0 0-1.5 5zM28.6 37c22.4-22.4 55.2-12.4 63-9l10.6-20.2s-42.2-20.5-76.8 5C-19.5 44.7 9 84.5 9 98.3S2.8 115 2.8 115c-.2.4 13-3 12.6-26.2S8.6 57 28.6 37zm-9.8 25.5a55.4 55.4 0 0 0-.2 13.5s3-8.6 11.7-9.7a22 22 0 0 1 1-2.7zm28.7-33a31.8 31.8 0 0 0-6.5 2.8L49.6 45l2-.7zM108 95a36.8 36.8 0 0 1-7-11c-3-7-7.4-35.4-39.4-36-16.6-.3-29 13.7-27.4 31.4.8 9.4 4 11.8 4 19.2a100.6 100.6 0 0 1-1.6 15c.2-.2 26.7-7 26.7-7s20.5 15.6 31.3 18c-.4 0-4.7-34-3.2-37-3.2.3-10.5.4-16.5-8.3 0 0 14.8-11 22 4.4v11.6zM67 33.6c3.5-3 11.6-4.7 11.6-4.7a76.3 76.3 0 0 0-18.3-1.6v15.3l3-.3s.3-5.8 3.8-8.7zm-9.6-6a49.7 49.7 0 0 0-7 1l4 15 3-.6z"/></g></g></svg>